<?xml version="1.0" standalone="no"?>
<!DOCTYPE svg PUBLIC "-//W3C//DTD SVG 20010904//EN"
 "http://www.w3.org/TR/2001/REC-SVG-20010904/DTD/svg10.dtd">
<svg version="1.0" xmlns="http://www.w3.org/2000/svg"
 width="300.000000pt" height="173.000000pt" viewBox="0 0 300.000000 173.000000"
 preserveAspectRatio="xMidYMid meet">
<metadata>
Created by potrace 1.10, written by Peter Selinger 2001-2011
</metadata>
<g transform="translate(0.000000,173.000000) scale(0.100000,-0.100000)"
fill="#000000" stroke="none">
<path d="M870 1131 l0 -109 -37 19 c-98 50 -227 -7 -263 -117 -27 -81 6 -170
83 -228 37 -27 134 -34 178 -12 39 20 39 20 39 1 0 -11 11 -15 40 -15 l40 0 0
285 0 285 -40 0 -40 0 0 -109z m49 -39 c-1 -20 2 -45 6 -56 6 -14 4 -17 -11
-14 -12 2 -18 11 -17 23 1 11 3 37 4 57 4 48 20 38 18 -10z m-119 -66 c0 -3
-17 -10 -37 -16 -121 -39 -146 -61 -147 -132 0 -16 -6 -28 -13 -28 -16 0 -17
30 -1 67 13 31 15 38 17 53 0 6 10 10 21 10 11 0 20 4 20 10 0 17 54 39 98 40
23 0 42 -2 42 -4z m108 -28 c17 -17 15 -48 -4 -55 -9 -3 -27 6 -45 23 l-30 29
23 6 c35 10 43 10 56 -3z m-98 -33 c37 -19 60 -62 60 -111 0 -28 -8 -44 -35
-71 -33 -33 -38 -35 -87 -31 -44 5 -57 11 -80 39 -81 97 29 232 142 174z m117
-65 c0 -18 -6 -30 -14 -30 -7 0 -13 6 -13 14 0 8 -6 16 -12 19 -8 3 -3 9 12
15 14 6 25 11 26 11 0 1 1 -12 1 -29z m-11 -115 c0 -30 -1 -55 -2 -55 -1 0
-15 5 -33 11 l-31 11 25 30 c14 16 25 36 25 44 0 8 4 14 9 14 5 0 8 -25 7 -55z
m-157 -65 c-33 -18 -59 -21 -59 -8 0 8 14 13 37 14 21 1 30 -2 22 -6z"/>
<path d="M1110 1038 c-24 -13 -58 -40 -74 -61 -28 -35 -31 -46 -31 -111 0 -82
21 -124 83 -166 45 -31 137 -39 183 -16 39 20 39 20 39 1 0 -11 11 -15 40 -15
l40 0 0 195 0 195 -40 0 c-33 0 -40 -4 -40 -19 0 -18 -1 -18 -37 0 -50 25
-109 24 -163 -3z m243 -50 c4 -13 4 -32 2 -43 -2 -11 -4 -24 -4 -28 -2 -15
-61 58 -61 74 0 7 22 15 46 18 7 0 14 -9 17 -21z m-103 -23 c34 -17 60 -62 60
-100 0 -96 -120 -151 -190 -87 -101 90 10 249 130 187z m109 -200 c1 -35 -14
-48 -47 -40 l-31 6 32 45 c26 38 33 42 39 27 3 -10 7 -27 7 -38z"/>
<path d="M1438 1054 c-2 -1 -2 -88 0 -193 l3 -191 39 0 40 0 0 116 c0 99 3
120 20 144 25 34 71 54 110 46 21 -4 30 -2 30 8 0 7 3 28 6 45 l7 31 -54 0
c-30 -1 -65 -7 -79 -15 -32 -18 -40 -18 -40 -1 0 9 -13 13 -40 13 -22 0 -41
-1 -42 -3z m100 -54 c12 0 -46 -89 -59 -90 -5 0 -5 42 0 89 1 9 8 11 24 7 12
-3 28 -6 35 -6z"/>
<path d="M1800 1038 c-96 -49 -136 -166 -88 -257 35 -68 86 -104 156 -109 39
-3 70 1 96 12 47 20 47 20 40 1 -5 -12 3 -15 37 -15 l44 0 -2 192 -1 193 -42
3 c-38 3 -41 2 -35 -18 l7 -21 -39 21 c-50 27 -117 26 -173 -2z m246 -53 c3
-14 3 -37 0 -51 l-7 -26 -29 41 c-35 48 -35 48 -12 54 35 9 42 7 48 -18z
m-106 -20 c42 -21 60 -53 60 -103 0 -37 -6 -50 -34 -78 -26 -26 -42 -34 -70
-34 -53 0 -95 25 -113 67 -21 51 -10 95 33 132 39 35 78 40 124 16z m110 -195
c0 -45 -7 -52 -48 -44 l-30 6 31 43 c18 23 35 40 40 38 4 -2 7 -22 7 -43z"/>
<path d="M2159 1055 c0 -3 -1 -22 -1 -42 l-1 -38 72 1 c51 1 71 -2 68 -10 -3
-6 -41 -73 -86 -150 -44 -76 -81 -140 -81 -142 0 -2 70 -4 155 -4 l155 0 0 44
0 44 -80 -5 c-44 -3 -80 -2 -80 2 0 7 101 187 152 273 l20 32 -146 0 c-80 0
-146 -2 -147 -5z m209 -55 c1 -8 -9 -28 -24 -45 -21 -25 -25 -26 -21 -9 2 11
-2 29 -9 39 -21 29 -17 37 18 33 20 -2 34 -9 36 -18z m-114 -218 c-4 -19 -1
-32 10 -41 24 -20 19 -31 -14 -31 -41 0 -48 23 -19 65 13 19 25 35 26 35 1 0
0 -13 -3 -28z"/>
</g>
</svg>
